<svg width="114" height="40" viewBox="0 0 114 40" fill="none" xmlns="http://www.w3.org/2000/svg">
<path d="M15.4277 26.2812L15.5723 26.5312H15.8613L32.8945 26.5215L28.3984 34.2314L11.5957 34.1562L8.63184 29.0215L12.8271 21.7764L15.4277 26.2812Z" fill="black" stroke="white"/>
<path d="M28.0547 5.83496L36.3916 20.4238L33.4268 25.5586L25.0537 25.5488L27.6553 21.0449L27.7998 20.7939L27.6553 20.5439L19.1299 5.7959L28.0547 5.83496Z" fill="black" stroke="white"/>
<path d="M18.0234 5.76562L22.2012 13.0215H16.71L16.5654 13.2715L8.05664 28.0283L3.62793 20.2783L12.0947 5.76562H18.0234Z" fill="black" stroke="white"/>
<path d="M54.1136 28.5V11.0455H60.0114C61.3807 11.0455 62.5 11.2926 63.3693 11.7869C64.2443 12.2756 64.892 12.9375 65.3125 13.7727C65.733 14.608 65.9432 15.5398 65.9432 16.5682C65.9432 17.5966 65.733 18.5312 65.3125 19.3722C64.8977 20.2131 64.2557 20.8835 63.3864 21.3835C62.517 21.8778 61.4034 22.125 60.0455 22.125H55.8182V20.25H59.9773C60.9148 20.25 61.6676 20.0881 62.2358 19.7642C62.804 19.4403 63.2159 19.0028 63.4716 18.4517C63.733 17.8949 63.8636 17.267 63.8636 16.5682C63.8636 15.8693 63.733 15.2443 63.4716 14.6932C63.2159 14.142 62.8011 13.7102 62.2273 13.3977C61.6534 13.0795 60.892 12.9205 59.9432 12.9205H56.2273V28.5H54.1136ZM67.6353 28.5V15.4091H69.6466V28.5H67.6353ZM68.658 13.2273C68.266 13.2273 67.9279 13.0938 67.6438 12.8267C67.3654 12.5597 67.2262 12.2386 67.2262 11.8636C67.2262 11.4886 67.3654 11.1676 67.6438 10.9006C67.9279 10.6335 68.266 10.5 68.658 10.5C69.0501 10.5 69.3853 10.6335 69.6637 10.9006C69.9478 11.1676 70.0898 11.4886 70.0898 11.8636C70.0898 12.2386 69.9478 12.5597 69.6637 12.8267C69.3853 13.0938 69.0501 13.2273 68.658 13.2273ZM71.8906 33.4091V15.4091H73.8338V17.4886H74.0724C74.2201 17.2614 74.4247 16.9716 74.6861 16.6193C74.9531 16.2614 75.3338 15.9432 75.8281 15.6648C76.3281 15.3807 77.0042 15.2386 77.8565 15.2386C78.9588 15.2386 79.9304 15.5142 80.7713 16.0653C81.6122 16.6165 82.2684 17.3977 82.74 18.4091C83.2116 19.4205 83.4474 20.6136 83.4474 21.9886C83.4474 23.375 83.2116 24.5767 82.74 25.5938C82.2684 26.6051 81.615 27.3892 80.7798 27.946C79.9446 28.4972 78.9815 28.7727 77.8906 28.7727C77.0497 28.7727 76.3764 28.6335 75.8707 28.3551C75.365 28.071 74.9758 27.75 74.7031 27.392C74.4304 27.0284 74.2201 26.7273 74.0724 26.4886H73.902V33.4091H71.8906ZM73.8679 21.9545C73.8679 22.9432 74.0128 23.8153 74.3025 24.571C74.5923 25.321 75.0156 25.9091 75.5724 26.3352C76.1292 26.7557 76.8111 26.9659 77.6179 26.9659C78.4588 26.9659 79.1605 26.7443 79.723 26.3011C80.2912 25.8523 80.7173 25.25 81.0014 24.4943C81.2912 23.733 81.4361 22.8864 81.4361 21.9545C81.4361 21.0341 81.294 20.2045 81.0099 19.4659C80.7315 18.7216 80.3082 18.1335 79.74 17.7017C79.1775 17.2642 78.4701 17.0455 77.6179 17.0455C76.7997 17.0455 76.1122 17.2528 75.5554 17.6676C74.9986 18.0767 74.5781 18.6506 74.294 19.3892C74.0099 20.1222 73.8679 20.9773 73.8679 21.9545ZM90.5642 28.7727C89.3029 28.7727 88.2148 28.4943 87.3 27.9375C86.3909 27.375 85.6892 26.5909 85.1949 25.5852C84.7063 24.5739 84.462 23.3977 84.462 22.0568C84.462 20.7159 84.7063 19.5341 85.1949 18.5114C85.6892 17.483 86.3767 16.6818 87.2574 16.108C88.1438 15.5284 89.1779 15.2386 90.3597 15.2386C91.0415 15.2386 91.7148 15.3523 92.3796 15.5795C93.0443 15.8068 93.6495 16.1761 94.1949 16.6875C94.7404 17.1932 95.175 17.8636 95.4989 18.6989C95.8228 19.5341 95.9847 20.5625 95.9847 21.7841V22.6364H85.8938V20.8977H93.9392C93.9392 20.1591 93.7915 19.5 93.4961 18.9205C93.2063 18.3409 92.7915 17.8835 92.2517 17.5483C91.7176 17.2131 91.087 17.0455 90.3597 17.0455C89.5586 17.0455 88.8654 17.2443 88.2801 17.642C87.7006 18.0341 87.2546 18.5455 86.9421 19.1761C86.6296 19.8068 86.4733 20.483 86.4733 21.2045V22.3636C86.4733 23.3523 86.6438 24.1903 86.9847 24.8778C87.3313 25.5597 87.8114 26.0795 88.425 26.4375C89.0387 26.7898 89.7517 26.9659 90.5642 26.9659C91.0926 26.9659 91.5699 26.892 91.9961 26.7443C92.4279 26.5909 92.8 26.3636 93.1125 26.0625C93.425 25.7557 93.6665 25.375 93.837 24.9205L95.7801 25.4659C95.5756 26.125 95.2318 26.7045 94.7489 27.2045C94.2659 27.6989 93.6693 28.0852 92.9591 28.3636C92.2489 28.6364 91.4506 28.7727 90.5642 28.7727ZM99.6157 11.0455V28.5H97.6043V11.0455H99.6157ZM103.155 33.4091C102.814 33.4091 102.51 33.3807 102.243 33.3239C101.976 33.2727 101.791 33.2216 101.689 33.1705L102.201 31.3977C102.689 31.5227 103.121 31.5682 103.496 31.5341C103.871 31.5 104.203 31.3324 104.493 31.0312C104.789 30.7358 105.059 30.2557 105.303 29.5909L105.678 28.5682L100.837 15.4091H103.019L106.632 25.8409H106.769L110.382 15.4091H112.564L107.007 30.4091C106.757 31.0852 106.448 31.6449 106.078 32.0881C105.709 32.5369 105.28 32.8693 104.791 33.0852C104.309 33.3011 103.763 33.4091 103.155 33.4091Z" fill="black"/>
</svg>
